<?xml version="1.0" standalone="no"?>
<!DOCTYPE svg PUBLIC "-//W3C//DTD SVG 20010904//EN"
 "http://www.w3.org/TR/2001/REC-SVG-20010904/DTD/svg10.dtd">
<svg version="1.0" xmlns="http://www.w3.org/2000/svg"
 width="874.000000pt" height="874.000000pt" viewBox="0 0 874.000000 874.000000"
 preserveAspectRatio="xMidYMid meet">
<metadata>
Created by potrace 1.14, written by Peter Selinger 2001-2017
</metadata>
<g transform="translate(0.000000,874.000000) scale(0.100000,-0.100000)"
fill="#000000" stroke="none">
<path d="M4261 8641 c-45 -16 -54 -26 -70 -72 -5 -15 -19 -29 -30 -32 l-21 -5
20 25 c11 14 20 37 20 51 0 24 -1 24 -22 8 -13 -9 -35 -21 -49 -27 -29 -11
-51 -46 -51 -81 0 -13 -11 -31 -26 -42 -25 -19 -25 -19 -17 0 14 32 18 91 6
98 -6 4 -11 3 -11 -2 0 -5 -16 -26 -36 -47 -32 -35 -36 -43 -31 -81 4 -37 0
-47 -29 -80 l-34 -38 0 36 c0 21 -8 46 -20 59 -19 23 -19 23 -20 3 0 -11 -7
-35 -16 -53 -16 -32 -14 -95 4 -113 9 -9 2 -34 -26 -98 l-11 -25 0 26 c-1 25
-35 79 -50 79 -8 0 -15 -55 -14 -113 0 -27 8 -46 26 -65 15 -16 24 -35 22 -47
-2 -11 -4 -29 -4 -40 -1 -15 -8 -9 -26 22 -15 24 -37 45 -54 51 l-30 10 14
-43 c7 -24 11 -46 8 -49 -3 -2 -2 -19 2 -36 8 -34 43 -75 75 -85 17 -5 21 -12
20 -40 0 -3 7 -22 15 -42 18 -43 15 -49 -11 -24 -28 26 -54 38 -91 44 -40 6
-40 1 -8 -43 14 -19 25 -40 25 -48 0 -46 77 -102 140 -102 16 0 30 -5 30 -11
0 -6 7 -17 15 -25 24 -24 17 -34 -12 -19 -35 17 -70 20 -105 10 -26 -7 -39
-25 -20 -25 8 0 19 -8 68 -48 40 -34 102 -44 142 -24 12 7 23 3 39 -13 23 -24
21 -38 -3 -28 -17 6 -74 -15 -74 -28 0 -5 6 -9 13 -9 8 0 34 -16 59 -35 25
-20 59 -38 74 -41 47 -8 51 -11 52 -42 2 -67 52 -145 100 -157 33 -8 16 -20
-38 -28 -57 -8 -123 -28 -161 -49 l-37 -20 -66 26 c-102 41 -197 35 -306 -17
-46 -23 -48 -24 -118 -84 -41 -35 -49 -37 -115 -39 -127 -4 -197 -14 -302 -45
-147 -44 -254 -122 -298 -219 -24 -52 -27 -141 -7 -192 80 -198 333 -208 529
-21 36 34 75 63 86 64 120 5 248 41 328 93 26 17 47 34 47 37 0 4 17 3 38 -2
147 -34 274 -29 383 15 13 6 16 -1 16 -36 1 -24 4 -59 7 -80 5 -31 1 -41 -23
-67 -16 -17 -38 -50 -49 -73 -20 -45 -35 -128 -22 -128 4 0 26 20 49 45 23 25
43 45 45 45 2 0 9 -14 16 -30 11 -27 14 -29 29 -16 9 8 27 36 41 63 14 26 27
50 30 53 10 9 40 105 46 146 8 55 14 63 45 57 19 -3 27 -11 27 -26 0 -24 18
-101 31 -132 34 -80 87 -165 104 -165 3 0 4 14 3 30 -1 17 0 30 4 30 3 0 29
-25 59 -55 30 -30 57 -55 62 -55 12 0 2 81 -15 121 -8 20 -31 57 -50 82 -25
33 -34 54 -32 74 2 15 4 44 5 64 1 32 5 37 53 57 42 18 54 20 67 9 69 -56 261
-122 346 -120 31 1 127 12 157 18 15 3 29 1 33 -5 11 -18 172 -119 245 -154
109 -52 170 -65 282 -62 93 3 100 4 152 39 54 36 101 98 112 149 18 84 -7 177
-62 232 -81 80 -246 119 -387 92 -32 -6 -41 -3 -62 19 -14 14 -30 25 -35 25
-4 0 -10 4 -12 9 -5 13 -108 63 -143 68 -16 3 -37 9 -46 13 -21 12 -207 10
-241 -2 -22 -8 -34 -5 -70 19 -52 35 -122 69 -163 79 -16 4 -37 9 -45 11 -18
4 -166 5 -195 1 -14 -2 -21 3 -23 21 -2 14 0 21 7 17 10 -7 43 8 67 29 27 25
50 89 53 146 1 11 14 18 39 23 20 3 49 17 64 31 15 14 39 30 54 35 39 15 14
40 -40 40 l-41 0 30 26 c22 19 35 23 55 18 66 -19 109 -6 163 47 16 16 35 29
43 29 20 0 18 16 -3 25 -40 16 -66 15 -109 -5 l-46 -20 21 33 c13 21 29 33 48
35 35 4 84 22 101 39 7 7 23 36 36 66 13 29 31 59 40 67 13 10 14 15 4 21 -21
14 -90 -11 -119 -43 -26 -29 -28 -21 -9 32 10 28 15 50 12 50 -4 1 7 7 23 15
64 30 67 35 79 130 4 28 9 58 12 69 6 18 5 18 -26 0 -31 -18 -61 -53 -73 -84
-3 -8 -6 4 -6 28 -1 31 6 52 23 75 30 39 31 48 22 119 -10 67 -24 68 -55 5
-11 -24 -20 -34 -21 -24 0 10 -7 32 -16 49 -12 23 -13 36 -5 57 15 35 20 90
10 97 -5 2 -13 23 -19 45 -10 36 -12 38 -27 23 -9 -9 -17 -34 -17 -58 -1 -43
-1 -43 -19 -22 -10 11 -26 30 -36 42 -11 13 -15 27 -11 40 12 32 1 64 -38 110
-31 37 -38 42 -43 27 -8 -23 0 -74 14 -92 10 -12 9 -12 -10 -3 -27 15 -36 28
-38 62 -2 27 -32 70 -48 70 -5 0 -22 9 -38 21 -16 11 -30 18 -30 15 -6 -25 -4
-35 12 -63 10 -18 14 -33 9 -33 -15 0 -40 31 -40 49 0 23 -25 45 -74 65 -21 9
-40 16 -42 16 -11 0 7 -56 21 -66 23 -17 18 -23 -12 -17 -44 8 -94 11 -87 4 6
-7 13 -8 52 -10 l27 -1 -35 -18 c-29 -14 -43 -32 -25 -32 3 0 21 -6 41 -15 42
-17 50 -16 90 12 39 27 64 16 32 -14 -13 -11 -34 -24 -47 -28 -35 -11 -10 -28
41 -28 24 0 57 8 73 17 38 20 42 20 72 -4 l26 -20 -24 0 c-46 0 -52 -14 -18
-44 38 -34 90 -57 117 -51 11 2 28 -5 36 -14 16 -17 15 -18 -11 -15 -15 2 -38
1 -49 -2 -19 -5 -17 -10 29 -55 34 -34 58 -49 76 -49 22 0 31 -8 48 -43 l21
-44 -35 18 c-37 19 -64 16 -44 -4 6 -6 11 -19 11 -29 0 -32 40 -98 65 -110 20
-9 25 -18 24 -47 0 -20 -3 -29 -6 -21 -3 8 -18 26 -34 40 -29 24 -33 25 -142
20 -91 -4 -112 -8 -112 -20 0 -23 185 -28 201 -5 10 13 12 11 16 -15 3 -17 2
-33 -2 -35 -7 -4 -6 -28 4 -74 3 -13 16 -37 29 -55 21 -28 22 -34 11 -66 l-13
-35 0 30 c-1 18 -12 42 -28 60 l-27 29 -8 -30 c-4 -16 -14 -53 -22 -82 -13
-46 -13 -59 -2 -93 11 -32 11 -40 0 -50 -8 -6 -11 -15 -8 -20 3 -5 2 -9 -3 -9
-4 0 -25 -16 -46 -35 -43 -40 -52 -43 -37 -16 5 11 8 30 6 43 -3 13 -5 26 -5
30 -1 4 -15 -6 -31 -22 -17 -17 -35 -30 -40 -30 -5 0 -18 -9 -28 -20 l-19 -21
-16 34 c-9 19 -23 39 -30 45 -49 41 -135 0 -167 -79 -9 -21 -16 -27 -23 -20
-14 14 -60 14 -74 0 -8 -8 -17 2 -34 32 -54 97 -145 112 -185 30 l-18 -38 -30
26 c-16 14 -42 39 -58 54 -15 16 -32 26 -38 22 -13 -8 -13 -51 1 -77 20 -37 3
-28 -54 28 -40 40 -54 60 -48 68 20 24 22 79 4 135 -16 54 -19 65 -22 85 -2
16 -51 -37 -51 -55 0 -29 -17 -31 -24 -3 -5 20 -1 33 14 49 27 28 38 69 35
125 l-3 45 104 -3 c64 -3 110 0 117 7 10 8 21 3 43 -17 17 -15 54 -48 84 -73
l53 -46 -27 -108 c-24 -96 -27 -137 -8 -110 4 6 46 34 94 63 l87 53 58 -37
c32 -20 70 -45 85 -55 28 -20 64 -26 53 -10 -6 11 -44 156 -49 188 -2 14 7 29
26 45 16 13 41 34 56 47 15 13 40 34 57 47 16 12 27 25 24 28 -5 5 -53 10
-182 18 -37 2 -40 5 -68 66 -16 36 -29 68 -29 72 0 4 -7 25 -16 46 l-17 39
-10 -25 c-6 -14 -11 -27 -12 -30 -3 -8 -24 -59 -46 -111 -12 -27 -24 -49 -28
-50 -3 0 -14 -2 -24 -4 -10 -2 -57 -6 -103 -9 -46 -2 -88 -8 -94 -11 -5 -3
-10 -1 -10 4 0 16 -192 14 -209 -1 -11 -10 -13 -10 -7 0 4 7 2 12 -6 12 -17
-1 -58 -35 -58 -49 0 -5 -4 -12 -9 -15 -4 -3 -7 7 -6 22 1 17 16 43 41 68 22
22 40 50 41 62 1 13 8 36 17 52 13 27 13 29 -2 27 -10 -2 -28 -9 -40 -16 -13
-7 -25 -11 -27 -9 -6 6 30 73 40 73 29 2 64 22 98 56 21 22 44 39 50 40 7 0 1
5 -13 10 -14 6 -41 7 -60 4 l-34 -7 24 20 c14 11 34 18 47 16 27 -5 54 8 105
50 l37 31 -36 11 -35 10 27 18 c26 17 28 17 76 -3 75 -33 156 -10 85 24 -49
23 -62 41 -36 48 11 3 23 -1 28 -7 16 -29 51 -38 90 -25 35 12 43 15 59 18 13
2 -30 40 -51 44 -12 2 -5 5 17 6 20 0 37 5 37 10 0 9 -56 6 -93 -5 l-22 -6 21
23 c24 27 36 57 26 62 -4 2 -27 -3 -51 -12z m52 -1263 c25 -18 27 -25 27 -82
0 -63 0 -64 -30 -70 -17 -3 -33 -7 -38 -8 -4 -2 -8 41 -8 94 -1 70 2 96 10 91
6 -3 23 -15 39 -25z m246 -55 c-1 -111 -3 -115 -42 -98 -31 13 -32 16 -33 72
-1 51 2 61 25 80 44 37 50 31 50 -54z m-113 -142 c-3 -4 6 -24 19 -43 18 -27
24 -48 22 -82 -1 -25 -2 -46 -2 -46 -1 0 -19 9 -41 19 -23 11 -54 22 -70 24
-39 5 -43 38 -10 78 14 17 26 36 26 43 0 8 13 13 30 14 17 0 28 -3 26 -7z"/>
<path d="M4399 8453 c-4 -66 -1 -194 5 -208 3 -9 12 -15 19 -12 12 4 22 168
11 215 -5 26 -34 30 -35 5z"/>
<path d="M4223 8394 c-7 -19 66 -170 86 -179 32 -13 26 23 -17 106 -46 90 -58
102 -69 73z"/>
<path d="M4579 8368 c-11 -24 -31 -62 -44 -86 -23 -42 -24 -77 -1 -69 6 2 20
21 31 43 11 21 22 41 25 44 14 13 41 90 36 99 -13 21 -27 11 -47 -31z"/>
<path d="M4061 8317 c-8 -10 15 -38 101 -125 107 -108 130 -124 143 -102 5 8
-215 240 -228 240 -2 0 -9 -6 -16 -13z"/>
<path d="M4643 8215 c-62 -63 -113 -119 -113 -125 0 -31 49 2 148 102 85 86
109 115 100 125 -6 7 -13 13 -17 13 -3 0 -57 -52 -118 -115z"/>
<path d="M3970 8155 c-15 -18 2 -35 55 -56 17 -7 32 -16 35 -19 10 -12 74 -38
82 -34 19 12 5 35 -34 53 -24 11 -62 32 -84 46 -37 22 -43 23 -54 10z"/>
<path d="M4820 8143 c-102 -57 -130 -74 -130 -82 0 -19 27 -17 67 3 146 74
146 73 121 93 -9 7 -27 3 -58 -14z"/>
<path d="M4098 7861 c-13 -10 -27 -19 -33 -19 -20 -1 -105 -57 -105 -68 0 -20
23 -22 55 -4 17 9 54 29 83 45 28 15 52 34 52 41 0 21 -28 24 -52 5z"/>
<path d="M4701 7866 c-13 -15 -9 -19 59 -56 95 -51 115 -59 122 -47 10 17 -10
35 -76 70 -88 46 -93 47 -105 33z"/>
<path d="M4150 7724 c-80 -77 -97 -101 -82 -116 7 -7 37 15 93 69 68 67 80 83
72 98 -9 16 -18 10 -83 -51z"/>
<path d="M4606 7774 c-5 -12 15 -38 66 -90 76 -76 108 -95 108 -65 0 15 -149
171 -163 171 -3 0 -8 -7 -11 -16z"/>
<path d="M4410 7690 c-12 -6 -15 -28 -13 -107 1 -54 2 -104 2 -111 1 -8 9 -12
19 -10 15 3 17 17 19 108 1 113 -3 134 -27 120z"/>
<path d="M4355 6271 c-99 -54 -262 -111 -360 -127 -22 -3 -43 -8 -46 -9 -10
-7 -142 -18 -224 -19 -69 -2 -240 14 -300 28 -60 13 -87 20 -155 41 -41 13
-97 32 -125 42 -63 24 -87 20 -122 -21 -53 -59 -159 -143 -242 -189 -46 -26
-89 -47 -95 -47 -7 0 -16 -4 -22 -9 -19 -18 -192 -69 -291 -85 -116 -20 -108
-16 -128 -57 -12 -23 -15 -67 -15 -216 1 -104 3 -213 5 -243 9 -135 18 -236
31 -335 3 -22 7 -56 9 -75 4 -36 10 -77 25 -170 20 -117 23 -133 42 -220 6
-30 12 -59 13 -65 1 -5 4 -21 8 -35 4 -14 9 -36 11 -50 6 -32 61 -240 81 -305
8 -27 15 -53 15 -57 0 -4 -20 -6 -45 -4 -75 6 -181 -21 -234 -59 -26 -18 -131
-128 -127 -132 2 -3 -5 -25 -16 -50 -23 -51 -30 -145 -16 -206 31 -137 138
-246 276 -280 l47 -12 -1 -60 c-1 -75 -22 -117 -77 -152 -23 -14 -46 -32 -52
-39 -138 -169 -220 -278 -251 -334 -10 -19 -22 -37 -26 -40 -13 -11 -127 -247
-151 -315 -34 -99 -29 -111 89 -229 70 -69 88 -86 164 -144 30 -23 60 -46 65
-50 6 -4 39 -26 75 -49 36 -23 71 -47 78 -53 6 -6 12 -8 12 -4 0 4 8 0 18 -8
27 -23 92 -58 107 -58 7 0 15 -4 17 -8 4 -10 121 -65 213 -101 90 -36 99 -39
106 -37 3 0 12 -4 20 -10 8 -7 30 -15 49 -19 19 -4 40 -10 45 -14 6 -3 26 -11
45 -16 54 -16 60 -39 54 -205 -10 -317 -13 -381 -19 -543 -5 -116 -3 -177 4
-195 9 -21 34 -38 101 -70 91 -44 327 -135 384 -148 41 -10 35 -9 86 -23 25
-7 52 -15 60 -17 8 -2 35 -8 60 -15 54 -13 75 -18 115 -24 17 -3 37 -8 45 -10
8 -2 33 -6 55 -10 22 -3 51 -7 65 -10 208 -32 516 -45 730 -30 198 14 284 24
350 39 14 3 42 8 62 11 116 16 375 84 508 133 8 3 17 6 20 6 12 3 177 71 200
83 14 7 30 13 36 13 6 0 17 7 24 15 7 8 15 13 19 10 11 -6 61 44 62 63 0 9 2
27 3 39 2 13 0 23 -3 23 -3 0 -7 53 -7 118 -2 113 -9 347 -19 579 -3 61 -1
121 3 133 6 16 35 30 125 60 64 22 151 54 194 72 43 18 80 33 83 33 16 1 279
143 301 161 8 8 19 14 22 14 12 0 180 123 251 184 79 68 112 101 164 164 31
38 34 47 29 86 -6 43 -12 60 -58 161 -12 28 -24 55 -25 60 -4 19 -87 160 -147
250 -68 103 -135 190 -189 249 -21 23 -38 44 -38 49 0 4 -6 7 -13 7 -19 0 -76
55 -87 86 -15 40 -22 93 -16 119 5 18 17 26 58 35 108 26 219 127 254 232 53
161 -4 333 -142 428 -24 17 -44 28 -44 25 0 -3 -10 1 -22 9 -30 19 -132 35
-185 29 l-42 -5 25 89 c14 48 27 95 29 103 3 8 9 35 16 60 6 25 12 52 15 60 9
38 23 97 28 120 2 14 11 57 19 95 9 39 18 84 21 100 2 17 7 41 10 55 3 13 8
42 11 65 9 58 10 69 30 205 2 14 7 54 11 90 3 36 8 79 10 95 21 186 25 595 5
642 -16 39 -23 43 -126 58 -46 6 -220 52 -250 64 -169 73 -266 135 -367 232
-39 38 -75 70 -80 70 -4 1 -14 2 -20 3 -7 2 -29 -4 -48 -11 -57 -23 -143 -54
-165 -59 -11 -3 -24 -6 -30 -8 -248 -66 -485 -66 -760 -2 -62 15 -159 52 -251
97 -82 40 -93 41 -149 10z m-1423 -3321 c4 0 8 -6 8 -14 0 -8 13 -36 29 -63
16 -26 61 -101 100 -167 39 -65 71 -123 71 -127 0 -5 4 -9 8 -9 4 0 15 -13 25
-29 l17 -30 -32 9 c-18 6 -42 14 -53 19 -11 6 -49 22 -85 36 -88 35 -270 126
-270 135 0 4 24 43 53 86 29 44 64 106 77 138 22 51 26 55 34 37 5 -12 13 -21
18 -21z m3038 -18 c22 -51 92 -168 119 -199 16 -18 14 -27 -8 -38 -184 -94
-409 -191 -419 -180 -4 3 33 63 113 188 12 18 32 52 45 77 14 25 27 47 30 50
3 3 23 40 45 82 22 43 42 78 45 78 3 0 16 -26 30 -58z m-2341 -1007 c24 -30
64 -76 88 -102 24 -26 64 -70 88 -98 45 -52 288 -296 363 -363 45 -42 53 -56
25 -48 -10 3 -61 8 -115 11 -53 3 -106 8 -118 10 -12 2 -41 6 -64 9 -141 17
-460 88 -528 119 -35 15 -38 5 74 237 49 102 99 206 111 232 12 26 24 47 27
47 3 0 25 -24 49 -54z m1661 24 c0 -4 36 -83 81 -176 105 -217 129 -272 129
-292 0 -13 -30 -25 -137 -54 -76 -20 -149 -38 -163 -41 -193 -37 -254 -45
-425 -60 -44 -4 -96 -9 -115 -12 -32 -4 -22 7 145 173 200 198 260 262 425
456 26 30 35 35 46 26 8 -6 14 -15 14 -20z"/>
</g>
</svg>
